<svg id="Group_761" data-name="Group 761" xmlns="http://www.w3.org/2000/svg" width="47.723" height="83.516" viewBox="0 0 47.723 83.516">
    <path id="Path_975" data-name="Path 975" d="M154.509,234.157h35.46V229.68c0-8.521-3.027-15.24-9.532-19.755a54.553,54.553,0,0,1-6.267-4.735,5.715,5.715,0,0,1,0-8.98,53.836,53.836,0,0,1,6.267-4.735c6.505-4.521,9.532-11.234,9.532-19.755v-4.477h-37.72v4.477c0,8.521,3.027,15.234,9.532,19.755a53.294,53.294,0,0,1,6.267,4.735,5.7,5.7,0,0,1,0,8.98,54,54,0,0,1-6.267,4.735c-6.505,4.515-9.532,11.234-9.532,19.755v4.477Z" transform="translate(-147.251 -158.943)" fill="#d0effa" fill-rule="evenodd" />
    <path id="Path_976" data-name="Path 976" d="M258.127,167.244c-.013,6.863-.126,11.749-2.857,16.709-4.389,7.943-12.59,9.972-13.532,15.742a6.369,6.369,0,0,1,2.1-3.485,53.835,53.835,0,0,1,6.267-4.735c6.505-4.521,9.532-11.234,9.532-19.755v-4.477Z" transform="translate(-216.916 -158.943)" fill="#f0fbff" fill-rule="evenodd" />
    <path id="Path_977" data-name="Path 977" d="M247.723,167.244c1.6,20.961-5.777,18.2-8.082,32.326,2.016-11.347,14.644-8.163,13.978-32.326Z" transform="translate(-215.283 -158.943)" fill="#abdaeb" fill-rule="evenodd" />
    <path id="Path_978" data-name="Path 978" d="M153.756,167.244c.019,6.863.126,11.749,2.863,16.709C161,191.9,169.2,193.925,170.145,199.7a6.331,6.331,0,0,0-2.1-3.485,53.294,53.294,0,0,0-6.267-4.735c-6.505-4.521-9.532-11.234-9.532-19.755v-4.477Z" transform="translate(-147.251 -158.943)" fill="#abdaeb" fill-rule="evenodd" />
    <path id="Path_979" data-name="Path 979" d="M184.058,167.244c-1.6,20.961,1.9,18.2,4.207,32.326-2.022-11.347-13.978-8.163-13.319-32.326Z" transform="translate(-164.9 -158.943)" fill="#f0fbff" fill-rule="evenodd" />
    <path id="Path_980" data-name="Path 980" d="M145.5,153.1h40.709v1.827a1.308,1.308,0,0,1-1.3,1.306h-38.1a1.313,1.313,0,0,1-1.306-1.306Z" transform="translate(-141.998 -147.931)" fill="#26a69a" fill-rule="evenodd" />
    <path id="Path_981" data-name="Path 981" d="M130.991,129.77H176.1a1.309,1.309,0,0,1,1.306,1.306v2.556a1.309,1.309,0,0,1-1.306,1.306H130.991a1.305,1.305,0,0,1-1.306-1.306v-2.556a1.305,1.305,0,0,1,1.306-1.306Z" transform="translate(-129.685 -129.77)" fill="#26a69a" fill-rule="evenodd" />
    <path id="Path_982" data-name="Path 982" d="M298.047,153.1v1.827a1.308,1.308,0,0,1-1.3,1.306h-7.585V153.1Z" transform="translate(-253.834 -147.931)" fill="#1d8f85" fill-rule="evenodd" />
    <rect id="Rectangle_201" data-name="Rectangle 201" width="11.585" height="3.133" transform="translate(7.573 5.168)" fill="#23aea1" />
    <rect id="Rectangle_202" data-name="Rectangle 202" width="12.741" height="5.168" transform="translate(4.465)" fill="#31b1a5" />
    <path id="Path_983" data-name="Path 983" d="M287.6,129.77h11.435a1.309,1.309,0,0,1,1.306,1.306v2.556a1.308,1.308,0,0,1-1.3,1.306H287.6Z" transform="translate(-252.621 -129.77)" fill="#229489" fill-rule="evenodd" />
    <path id="Path_984" data-name="Path 984" d="M189.969,181.361v1.35c0,8.521-3.027,15.234-9.532,19.755a53.836,53.836,0,0,0-6.267,4.735,5.9,5.9,0,0,0-2.179,4.49h-1.758a5.9,5.9,0,0,0-2.185-4.49,53.294,53.294,0,0,0-6.267-4.735c-6.505-4.521-9.532-11.234-9.532-19.755v-1.35Z" transform="translate(-147.251 -169.932)" fill="#fbce67" fill-rule="evenodd" />
    <path id="Path_985" data-name="Path 985" d="M241.8,210.579l-.006.038c1-5.714,9.149-7.761,13.52-15.673,2.3-4.169,2.744-8.3,2.832-13.582h1.532v1.35c0,8.521-3.027,15.234-9.532,19.755-2.681,1.865-5.407,3.667-6.958,5.457a5.8,5.8,0,0,0-1.388,2.656Z" transform="translate(-216.96 -169.932)" fill="#fcdf9c" fill-rule="evenodd" />
    <path id="Path_986" data-name="Path 986" d="M247.9,181.361c.653,17.588-6.085,15.824-8.263,29.2,1.928-10.832,13.513-8.421,13.984-29.2Z" transform="translate(-215.283 -169.932)" fill="#e3b752" fill-rule="evenodd" />
    <path id="Path_987" data-name="Path 987" d="M170.1,210.459c-.458-2.034-2.317-3.611-3.95-4.866-3.881-3-7.234-4.559-10.06-8.835l-.892-1.451c0-.006-.992-1.884-1.042-2.16,0-.006-.772-2-.816-2.3-.019-.138-.54-1.928-.59-2.443-.025-.333-.245-1.325-.276-1.827l-.17-1.9-.056-3.316h1.532c.094,5.287.534,9.413,2.838,13.582,4.326,7.837,12.364,9.915,13.482,15.516Z" transform="translate(-147.251 -169.932)" fill="#e3b752" fill-rule="evenodd" />
    <path id="Path_988" data-name="Path 988" d="M183.893,181.361c-1.023,17.588,2.235,15.824,4.421,29.2-1.928-10.832-12.911-8.421-13.331-29.2Z" transform="translate(-164.948 -169.932)" fill="#fcdf9c" fill-rule="evenodd" />
    <path id="Path_989" data-name="Path 989" d="M258.127,355.261c-.013-6.863-.126-11.755-2.857-16.709-4.389-7.943-12.59-9.972-13.532-15.742a6.369,6.369,0,0,0,2.1,3.485,54.553,54.553,0,0,0,6.267,4.735c6.505,4.515,9.532,11.234,9.532,19.755v4.477Z" transform="translate(-216.916 -280.047)" fill="#f0fbff" fill-rule="evenodd" />
    <path id="Path_990" data-name="Path 990" d="M247.723,355.68c1.6-20.961-5.777-18.2-8.082-32.332,2.016,11.353,14.644,8.163,13.978,32.332Z" transform="translate(-215.283 -280.466)" fill="#abdaeb" fill-rule="evenodd" />
    <path id="Path_991" data-name="Path 991" d="M153.756,355.261c.019-6.863.126-11.755,2.863-16.709,4.383-7.943,12.584-9.972,13.526-15.742a6.331,6.331,0,0,1-2.1,3.485,54,54,0,0,1-6.267,4.735c-6.505,4.515-9.532,11.234-9.532,19.755v4.477Z" transform="translate(-147.251 -280.047)" fill="#abdaeb" fill-rule="evenodd" />
    <path id="Path_992" data-name="Path 992" d="M184.058,355.68c-1.6-20.961,1.9-18.2,4.207-32.332-2.022,11.353-13.978,8.163-13.319,32.332Z" transform="translate(-164.9 -280.466)" fill="#f0fbff" fill-rule="evenodd" />
    <path id="Path_993" data-name="Path 993" d="M145.5,472.437h40.709V470.61a1.308,1.308,0,0,0-1.3-1.306h-38.1a1.313,1.313,0,0,0-1.306,1.306Z" transform="translate(-141.998 -394.09)" fill="#26a69a" fill-rule="evenodd" />
    <path id="Path_994" data-name="Path 994" d="M130.991,488.617H176.1a1.313,1.313,0,0,0,1.306-1.306v-2.562a1.308,1.308,0,0,0-1.306-1.3H130.991a1.3,1.3,0,0,0-1.306,1.3v2.562a1.309,1.309,0,0,0,1.306,1.306Z" transform="translate(-129.685 -405.101)" fill="#26a69a" fill-rule="evenodd" />
    <path id="Path_995" data-name="Path 995" d="M298.047,472.437V470.6a1.3,1.3,0,0,0-1.3-1.3h-7.585v3.133Z" transform="translate(-253.834 -394.09)" fill="#229489" fill-rule="evenodd" />
    <rect id="Rectangle_203" data-name="Rectangle 203" width="11.585" height="3.133" transform="translate(7.573 75.214)" fill="#31b1a5" />
    <rect id="Rectangle_204" data-name="Rectangle 204" width="12.741" height="5.168" transform="translate(4.465 78.348)" fill="#23aea1" />
    <path id="Path_996" data-name="Path 996" d="M287.6,488.617h11.435a1.313,1.313,0,0,0,1.306-1.306v-2.562a1.3,1.3,0,0,0-1.3-1.3H287.6Z" transform="translate(-252.621 -405.101)" fill="#1d8f85" fill-rule="evenodd" />
</svg>
