<svg xmlns="http://www.w3.org/2000/svg" width="75.54" height="99.888" viewBox="0 0 75.54 99.888">
    <g id="Group_752" data-name="Group 752" transform="translate(0)">
      <path id="Path_912" data-name="Path 912" d="M622.362,83.605s8.384-12.743,24.154-10.594,20.84,10.349,20.84,22.459c0,14.844-9.851,25.088,3.29,34.883,0,0-33.687.477-43.483,7.884s-10.752,9.8-10.752,9.8,1.673-11.708,9.318-17.68,7.885-13.38,7.885-13.38S614.478,105.586,622.362,83.605Z" transform="translate(-614.368 -48.145)" fill="#95acba"/>
      <path id="Path_913" data-name="Path 913" d="M636.619,110.22,647.844,101l13.484-2.87v5.534s-3.973,17.153-25.927,26.685c7.645-5.973,7.885-13.38,7.885-13.38A32.453,32.453,0,0,1,636.619,110.22Z" transform="translate(-624.04 -48.145)" fill="#627f8b"/>
      <path id="Path_914" data-name="Path 914" d="M672.689,96.74,636.812,81.9s-12.781,24.3,8.165,43.546Z" transform="translate(-632.951 -48.145)" fill="#4f646a"/>
      <path id="Path_915" data-name="Path 915" d="M629.867,98.135A5.534,5.534,0,1,0,635.4,92.6,5.533,5.533,0,0,0,629.867,98.135Z" transform="translate(-598.112 -48.145)" fill="#4f646a"/>
      <path id="Path_916" data-name="Path 916" d="M632.531,98.135a2.87,2.87,0,1,0,2.87-2.871A2.87,2.87,0,0,0,632.531,98.135Z" transform="translate(-598.113 -48.145)" fill="#96adbb"/>
      <path id="Path_917" data-name="Path 917" d="M605.133,69.068s-.792-9.223,13.065-5.639,12.345,12.352,16.486,19.83c3.383,6.109,11.231,5.036,11.231,5.036S638.3,84.26,638.3,71.922c0-9.177.163-20.244-17.214-23.338-16.869-3-23.434,10.02-22.955,20.317l2.748,3.847Z" transform="translate(-571.332 -48.145)" fill="#229489"/>
      <path id="Path_918" data-name="Path 918" d="M600.621,70.951s7.115-9.466,16.436-1.378c4.911,4.26,5.995,10.365,14.294,13.686s12.187-2.449,12.187-2.449-8.226,2.935-14.515-9.5c-4.954-9.795-13.371-18.172-23.737-15.049-8.72,2.627-8.128,14.69-8.128,14.69Z" transform="translate(-567.998 -48.145)" fill="#26a69a"/>
      <g id="Group_750" data-name="Group 750" transform="translate(1.82 40.15)">
        <g id="Group_749" data-name="Group 749">
          <path id="Path_919" data-name="Path 919" d="M648.856,97.04a28.531,28.531,0,0,1,2.355-8.745L670.7,96.36C662.878,97.739,652.781,97.291,648.856,97.04Z" transform="translate(-648.691 -88.295)" fill="#798792"/>
          <path id="Path_920" data-name="Path 920" d="M668.685,98.135s.1-.056.259-.155l1.924.8L651.3,119.041c-5.682-5.834-8.556-14.272-8.265-20.218C655.443,100.339,668.685,98.135,668.685,98.135Z" transform="translate(-643.015 -88.295)" fill="#798792"/>
        </g>
        <path id="Path_921" data-name="Path 921" d="M657.537,105.834a24.026,24.026,0,0,1-2.543-3.305,12.916,12.916,0,0,1-.992-2.075h-1.921s0,3.586,3.823,6.648Z" transform="translate(-638.75 -88.295)" fill="#4f646a"/>
        <path id="Path_922" data-name="Path 922" d="M662.111,108.37s-1.693-2.052-2.544-3.305a20.965,20.965,0,0,1-1.951-4.419h-1.923a16.435,16.435,0,0,0,4.784,8.992Z" transform="translate(-646.936 -88.295)" fill="#4f646a"/>
        <path id="Path_923" data-name="Path 923" d="M666.684,111.335a32.454,32.454,0,0,1-2.543-3.305c-1.089-1.713-2.439-7.077-2.439-7.077H659.78s.423,7.558,5.27,11.65Z" transform="translate(-655.596 -88.295)" fill="#4f646a"/>
      </g>
      <path id="Path_924" data-name="Path 924" d="M644.671,73.011a27.477,27.477,0,0,0-8.3.094,3.869,3.869,0,0,1-.04-.572A3.757,3.757,0,0,1,640.2,68.9l5.045.165a3.756,3.756,0,0,1,3.632,3.875,3.675,3.675,0,0,1-.109.777C647.531,73.45,646.168,73.216,644.671,73.011Z" transform="translate(-612.523 -48.145)" fill="#4b616c"/>
      <path id="Path_925" data-name="Path 925" d="M616.411,148.033s1.673-11.708,9.318-17.68a23.7,23.7,0,0,0,1.785-1.561c18.246-8.06,36.969-5.408,36.975-5.407a19.631,19.631,0,0,0,6.157,6.968s-33.687.477-43.483,7.884S616.411,148.033,616.411,148.033Z" transform="translate(-614.368 -48.145)" fill="#4f646a"/>
    </g>
  </svg>
