<svg xmlns="http://www.w3.org/2000/svg" width="75.54" height="99.888" viewBox="0 0 75.54 99.888">
    <g id="Group_751" data-name="Group 751" transform="translate(-597.149 -48.145)">
        <path id="Path_912" data-name="Path 912" d="M664.7,83.605s-8.384-12.743-24.154-10.594S619.7,83.36,619.7,95.47c0,14.844,9.851,25.088-3.29,34.883,0,0,33.687.477,43.483,7.884s10.752,9.8,10.752,9.8-1.673-11.708-9.318-17.68-7.885-13.38-7.885-13.38S672.579,105.586,664.7,83.605Z" fill="#95acba" />
        <path id="Path_913" data-name="Path 913" d="M660.11,110.22,648.885,101,635.4,98.134v5.534s3.973,17.153,25.927,26.685c-7.645-5.973-7.885-13.38-7.885-13.38A32.453,32.453,0,0,0,660.11,110.22Z" fill="#627f8b" />
        <path id="Path_914" data-name="Path 914" d="M632.951,96.74l35.877-14.845s12.781,24.3-8.165,43.546Z" fill="#4f646a" />
        <path id="Path_915" data-name="Path 915" d="M640.934,98.135A5.534,5.534,0,1,1,635.4,92.6,5.533,5.533,0,0,1,640.934,98.135Z" fill="#4f646a" />
        <path id="Path_916" data-name="Path 916" d="M638.271,98.135a2.87,2.87,0,1,1-2.87-2.871A2.87,2.87,0,0,1,638.271,98.135Z" fill="#96adbb" />
        <path id="Path_917" data-name="Path 917" d="M638.887,69.068s.792-9.223-13.065-5.639-12.345,12.352-16.486,19.83c-3.383,6.109-11.231,5.036-11.231,5.036s7.617-4.035,7.617-16.373c0-9.177-.163-20.244,17.214-23.338,16.869-3,23.434,10.02,22.955,20.317l-2.748,3.847Z" fill="#952020" />
        <path id="Path_918" data-name="Path 918" d="M640.066,70.951s-7.115-9.466-16.436-1.378c-4.911,4.26-5.995,10.365-14.294,13.686s-12.187-2.449-12.187-2.449,8.226,2.935,14.515-9.5c4.954-9.795,13.371-18.172,23.737-15.049,8.72,2.627,8.128,14.69,8.128,14.69Z" fill="#a62626" />
        <g id="Group_750" data-name="Group 750">
            <g id="Group_749" data-name="Group 749">
                <path id="Path_919" data-name="Path 919" d="M670.7,97.04a28.531,28.531,0,0,0-2.355-8.745L648.856,96.36C656.681,97.739,666.778,97.291,670.7,97.04Z" fill="#798792" />
                <path id="Path_920" data-name="Path 920" d="M645.2,98.135s-.1-.056-.259-.155l-1.924.8,19.568,20.264c5.682-5.834,8.556-14.272,8.265-20.218C658.44,100.339,645.2,98.135,645.2,98.135Z" fill="#798792" />
            </g>
            <path id="Path_921" data-name="Path 921" d="M652.081,105.834a24.026,24.026,0,0,0,2.543-3.305,12.916,12.916,0,0,0,.992-2.075h1.921s0,3.586-3.823,6.648Z" fill="#4f646a" />
            <path id="Path_922" data-name="Path 922" d="M655.693,108.37s1.693-2.052,2.544-3.305a20.965,20.965,0,0,0,1.951-4.419h1.923a16.435,16.435,0,0,1-4.784,8.992Z" fill="#4f646a" />
            <path id="Path_923" data-name="Path 923" d="M659.78,111.335a32.454,32.454,0,0,0,2.543-3.305c1.089-1.713,2.439-7.077,2.439-7.077h1.922s-.423,7.558-5.27,11.65Z" fill="#4f646a" />
        </g>
        <path id="Path_924" data-name="Path 924" d="M640.541,73.011a27.477,27.477,0,0,1,8.3.094,3.869,3.869,0,0,0,.04-.572,3.757,3.757,0,0,0-3.876-3.63l-5.045.165a3.756,3.756,0,0,0-3.632,3.875,3.675,3.675,0,0,0,.109.777C637.681,73.45,639.044,73.216,640.541,73.011Z" fill="#4b616c" />
        <path id="Path_925" data-name="Path 925" d="M670.646,148.033s-1.673-11.708-9.318-17.68a23.7,23.7,0,0,1-1.785-1.561c-18.246-8.06-36.969-5.408-36.975-5.407a19.631,19.631,0,0,1-6.157,6.968s33.687.477,43.483,7.884S670.646,148.033,670.646,148.033Z" fill="#4f646a" />
    </g>
</svg>
