<svg xmlns="http://www.w3.org/2000/svg" width="175.701" height="158.068" viewBox="0 0 175.701 158.068">
    <g id="Group_781" data-name="Group 781" transform="translate(-613.658 -119.338)">
      <g id="Group_777" data-name="Group 777" transform="translate(645.513 128.982)">
        <path id="Path_1081" data-name="Path 1081" d="M634.315,251.271l3.841,3.7,97.687-101.749-3.843-3.7Z" transform="translate(-631.901 -109.091)" fill="#582a1a"/>
        <path id="Path_1082" data-name="Path 1082" d="M634.315,251.271l1.921,1.85,97.686-101.75L732,149.523Z" transform="translate(-631.901 -109.091)" fill="#452114"/>
        <path id="Path_1083" data-name="Path 1083" d="M633.641,212.329l3.86,3.718c.328.315.771.383.994.151l.511-.529a.733.733,0,0,0-.191-.987l-3.86-3.716a.731.731,0,0,0-.992-.153l-.511.529A.732.732,0,0,0,633.641,212.329Z" transform="translate(-632.551 -68.792)" fill="#bababa"/>
        <path id="Path_1084" data-name="Path 1084" d="M693.054,150.079l4.977,4.793a.946.946,0,0,0,1.281.2l.657-.684a.943.943,0,0,0-.244-1.271l-4.977-4.793a.947.947,0,0,0-1.281-.2l-.657.685A.939.939,0,0,0,693.054,150.079Z" transform="translate(-593.459 -110.127)" fill="#bababa"/>
        <path id="Path_1085" data-name="Path 1085" d="M693.054,150.079l2.489,2.4,1.694-1.759-2.489-2.4a.947.947,0,0,0-1.281-.2l-.657.685A.939.939,0,0,0,693.054,150.079Z" transform="translate(-593.459 -110.127)" fill="gray"/>
        <path id="Path_1086" data-name="Path 1086" d="M706.144,136.851l4.058,3.905a.768.768,0,0,0,1.042.159l.538-.557a.772.772,0,0,0-.2-1.035l-4.058-3.907a.771.771,0,0,0-1.043-.158l-.536.557A.769.769,0,0,0,706.144,136.851Z" transform="translate(-584.784 -118.586)" fill="#bababa"/>
        <path id="Path_1087" data-name="Path 1087" d="M706.144,136.851l2.029,1.953,1.38-1.433-2.029-1.954a.771.771,0,0,0-1.043-.158l-.536.557A.769.769,0,0,0,706.144,136.851Z" transform="translate(-584.784 -118.586)" fill="gray"/>
        <path id="Path_1088" data-name="Path 1088" d="M633.641,212.329l1.931,1.858,1.314-1.364-1.931-1.858a.731.731,0,0,0-.992-.153l-.511.529A.732.732,0,0,0,633.641,212.329Z" transform="translate(-632.551 -68.792)" fill="gray"/>
        <path id="Path_1089" data-name="Path 1089" d="M633.869,215.587l.04.038c1.053,1.014,2.487,1.233,3.2.491l.7-.73-3.85-3.708-.7.728C632.543,213.15,632.817,214.573,633.869,215.587Z" transform="translate(-632.86 -68.131)" fill="#757575"/>
        <path id="Path_1090" data-name="Path 1090" d="M633.869,215.587l.04.038,1.973-2.1-1.921-1.848-.7.728C632.543,213.15,632.817,214.573,633.869,215.587Z" transform="translate(-632.86 -68.131)" fill="#525252"/>
        <path id="Path_1091" data-name="Path 1091" d="M711.633,138.345c3.5,6.966,8.059,2.308,8.059,2.308l12.487,11.581c1.221,21.134-31.8,20.362-31.8,20.362l.131-16.661s16.417,1.979,13.079-8.72l-5.806-5.662S710.742,137.488,711.633,138.345Z" transform="translate(-588.367 -116.535)" fill="#9c9c9c"/>
        <path id="Path_1092" data-name="Path 1092" d="M708.692,138.345a7.066,7.066,0,0,0,3.076,3.479l-3.212,3.353-3.716-3.623S707.8,137.488,708.692,138.345Z" transform="translate(-585.426 -116.535)" fill="gray"/>
        <path id="Path_1093" data-name="Path 1093" d="M730.869,145.909l1.311,1.262c1.221,21.134-31.8,20.362-31.8,20.362l.021-2.91C732.221,167.675,730.869,145.909,730.869,145.909Z" transform="translate(-588.367 -111.472)" fill="#bababa"/>
        <path id="Path_1094" data-name="Path 1094" d="M720.028,145.732c-6.966-3.5-2.308-8.059-2.308-8.059l-11.581-12.489c-21.135-1.219-20.364,31.8-20.364,31.8l16.663-.131s-1.978-16.417,8.72-13.079l5.664,5.806S720.886,146.623,720.028,145.732Z" transform="translate(-597.992 -125.151)" fill="#bababa"/>
        <path id="Path_1095" data-name="Path 1095" d="M709.135,138.821a6.883,6.883,0,0,1-3.527-3.182l-3.3,3.318,3.625,3.716S709.992,139.712,709.135,138.821Z" transform="translate(-587.098 -118.24)" fill="gray"/>
        <path id="Path_1096" data-name="Path 1096" d="M707.4,126.5l-1.262-1.312c-21.135-1.219-20.364,31.8-20.364,31.8l2.911-.023C685.634,125.144,707.4,126.5,707.4,126.5Z" transform="translate(-597.992 -125.151)" fill="#dbdbdb"/>
        <path id="Path_1097" data-name="Path 1097" d="M713.889,136.161l4.057,3.905-19.594,20.372-4.29-4.1Z" transform="translate(-592.529 -117.896)" fill="#bababa"/>
        <path id="Path_1098" data-name="Path 1098" d="M714.9,141.432h0l-7.245.288,3.629-3.769,8.041-8.352Z" transform="translate(-583.573 -122.22)" fill="#bababa"/>
        <path id="Path_1099" data-name="Path 1099" d="M707.665,134.47h0l-.011,7.251,3.629-3.769,8.041-8.352Z" transform="translate(-583.573 -122.22)" fill="gray"/>
      </g>
      <g id="Group_778" data-name="Group 778" transform="translate(613.658 128.982)">
        <path id="Path_1100" data-name="Path 1100" d="M739.24,251.271l-3.841,3.7L637.712,153.221l3.843-3.7Z" transform="translate(-597.807 -109.091)" fill="#582a1a"/>
        <path id="Path_1101" data-name="Path 1101" d="M738.477,251.271l-1.92,1.85L638.87,151.372l1.922-1.849Z" transform="translate(-597.044 -109.091)" fill="#452114"/>
        <path id="Path_1102" data-name="Path 1102" d="M701.889,212.329l-3.862,3.718a.728.728,0,0,1-.992.151l-.511-.529a.732.732,0,0,1,.189-.987l3.862-3.716a.731.731,0,0,1,.992-.153l.511.529A.732.732,0,0,1,701.889,212.329Z" transform="translate(-559.133 -68.792)" fill="#bababa"/>
        <path id="Path_1103" data-name="Path 1103" d="M643.144,150.079l-4.979,4.793a.945.945,0,0,1-1.281.2l-.657-.684a.943.943,0,0,1,.244-1.271l4.977-4.793a.947.947,0,0,1,1.281-.2l.657.685A.94.94,0,0,1,643.144,150.079Z" transform="translate(-598.891 -110.127)" fill="#bababa"/>
        <path id="Path_1104" data-name="Path 1104" d="M641.995,150.079l-2.49,2.4-1.694-1.759,2.489-2.4a.947.947,0,0,1,1.281-.2l.657.685A.94.94,0,0,1,641.995,150.079Z" transform="translate(-597.742 -110.127)" fill="gray"/>
        <path id="Path_1105" data-name="Path 1105" d="M629.5,136.851l-4.058,3.905a.768.768,0,0,1-1.042.159l-.537-.557a.77.77,0,0,1,.2-1.035l4.056-3.907a.771.771,0,0,1,1.043-.158l.538.557A.769.769,0,0,1,629.5,136.851Z" transform="translate(-607.016 -118.586)" fill="#bababa"/>
        <path id="Path_1106" data-name="Path 1106" d="M628.567,136.851l-2.029,1.953-1.38-1.433,2.027-1.954a.771.771,0,0,1,1.043-.158l.538.557A.769.769,0,0,1,628.567,136.851Z" transform="translate(-606.08 -118.586)" fill="gray"/>
        <path id="Path_1107" data-name="Path 1107" d="M701,212.329l-1.929,1.858-1.314-1.364,1.929-1.858a.731.731,0,0,1,.992-.153l.511.529A.732.732,0,0,1,701,212.329Z" transform="translate(-558.24 -68.792)" fill="gray"/>
        <path id="Path_1108" data-name="Path 1108" d="M701.323,215.587l-.038.038c-1.053,1.014-2.487,1.233-3.2.491l-.7-.73,3.852-3.708.7.728C702.65,213.15,702.376,214.573,701.323,215.587Z" transform="translate(-558.486 -68.131)" fill="#757575"/>
        <path id="Path_1109" data-name="Path 1109" d="M700.555,215.587l-.038.038-1.971-2.1,1.919-1.848.7.728C701.882,213.15,701.609,214.573,700.555,215.587Z" transform="translate(-557.719 -68.131)" fill="#525252"/>
        <path id="Path_1110" data-name="Path 1110" d="M634.239,138.345c-3.5,6.966-8.059,2.308-8.059,2.308l-12.489,11.581c-1.219,21.134,31.8,20.362,31.8,20.362l-.131-16.661s-16.417,1.979-13.081-8.72l5.807-5.662S635.13,137.488,634.239,138.345Z" transform="translate(-613.658 -116.535)" fill="#9c9c9c"/>
        <path id="Path_1111" data-name="Path 1111" d="M627.286,138.345a7.074,7.074,0,0,1-3.076,3.479l3.212,3.353,3.714-3.623S628.177,137.488,627.286,138.345Z" transform="translate(-606.705 -116.535)" fill="gray"/>
        <path id="Path_1112" data-name="Path 1112" d="M615,145.909l-1.311,1.262c-1.219,21.134,31.8,20.362,31.8,20.362l-.022-2.91C613.651,167.675,615,145.909,615,145.909Z" transform="translate(-613.658 -111.472)" fill="#bababa"/>
        <path id="Path_1113" data-name="Path 1113" d="M626.852,145.732c6.966-3.5,2.308-8.059,2.308-8.059l11.58-12.489c21.137-1.219,20.366,31.8,20.366,31.8l-16.663-.131s1.979-16.417-8.72-13.079l-5.664,5.806S625.995,146.623,626.852,145.732Z" transform="translate(-605.042 -125.151)" fill="#bababa"/>
        <path id="Path_1114" data-name="Path 1114" d="M626.852,138.821a6.883,6.883,0,0,0,3.527-3.182l3.3,3.318-3.623,3.716S625.995,139.712,626.852,138.821Z" transform="translate(-605.042 -118.24)" fill="gray"/>
        <path id="Path_1115" data-name="Path 1115" d="M634.416,126.5l1.261-1.312c21.137-1.219,20.366,31.8,20.366,31.8l-2.911-.023C656.184,125.144,634.416,126.5,634.416,126.5Z" transform="translate(-599.979 -125.151)" fill="#dbdbdb"/>
        <path id="Path_1116" data-name="Path 1116" d="M628.824,136.161l-4.057,3.905,19.593,20.372,4.29-4.1Z" transform="translate(-606.337 -117.896)" fill="#bababa"/>
        <path id="Path_1117" data-name="Path 1117" d="M622.964,141.432h0l7.245.288-3.627-3.769L618.54,129.6Z" transform="translate(-610.441 -122.22)" fill="#bababa"/>
        <path id="Path_1118" data-name="Path 1118" d="M630.2,134.47h0l.011,7.251-3.627-3.769L618.54,129.6Z" transform="translate(-610.441 -122.22)" fill="gray"/>
      </g>
      <g id="Group_779" data-name="Group 779" transform="translate(644.497 161.501)">
        <path id="Path_1119" data-name="Path 1119" d="M745.877,201.568a56.815,56.815,0,1,1-56.815-56.815A56.815,56.815,0,0,1,745.877,201.568Z" transform="translate(-632.247 -144.753)" fill="#657585"/>
        <path id="Path_1120" data-name="Path 1120" d="M684.534,145.35c-47.609,10.5-51.674,53.807-51.674,53.807S633.875,152.465,684.534,145.35Z" transform="translate(-631.843 -144.36)" fill="#9fb9d1"/>
        <path id="Path_1121" data-name="Path 1121" d="M679.714,197.7l-33.281-33.281a47.064,47.064,0,0,1,66.562,0Z" transform="translate(-622.899 -140.88)" fill="#a62626"/>
        <path id="Path_1122" data-name="Path 1122" d="M666.494,192.219l33.281-33.279a47.067,47.067,0,0,1,0,66.562Z" transform="translate(-609.679 -135.404)" fill="#cfbca1"/>
        <path id="Path_1123" data-name="Path 1123" d="M679.714,179l33.281,33.283a47.067,47.067,0,0,1-66.562,0Z" transform="translate(-622.899 -122.185)" fill="#a62626"/>
        <path id="Path_1124" data-name="Path 1124" d="M685.19,192.219,651.909,225.5a47.067,47.067,0,0,1,0-66.562Z" transform="translate(-628.374 -135.404)" fill="#cfbca1"/>
        <path id="Path_1125" data-name="Path 1125" d="M683.258,183.766a12,12,0,1,1-12-12A12,12,0,0,1,683.258,183.766Z" transform="translate(-614.445 -126.951)" fill="#272d33"/>
        <path id="Path_1126" data-name="Path 1126" d="M680.8,183.067a10.241,10.241,0,1,1-10.241-10.239A10.241,10.241,0,0,1,680.8,183.067Z" transform="translate(-613.747 -126.252)" fill="#657585"/>
        <path id="Path_1127" data-name="Path 1127" d="M665.636,178.106c-1.214,1.211-2.7,1.692-3.316,1.073s-.138-2.1,1.075-3.315,2.7-1.694,3.316-1.075S666.846,176.891,665.636,178.106Z" transform="translate(-612.608 -125.138)" fill="#9fb9d1"/>
        <path id="Path_1128" data-name="Path 1128" d="M669.157,148.43a1.906,1.906,0,1,1-1.906-1.9A1.905,1.905,0,0,1,669.157,148.43Z" transform="translate(-610.436 -143.585)" fill="#272d33"/>
        <path id="Path_1129" data-name="Path 1129" d="M690.693,158.939a1.906,1.906,0,1,1,0-2.7A1.907,1.907,0,0,1,690.693,158.939Z" transform="translate(-595.876 -137.549)" fill="#272d33"/>
        <path id="Path_1130" data-name="Path 1130" d="M698.493,181.6a1.906,1.906,0,1,1,1.9-1.9A1.906,1.906,0,0,1,698.493,181.6Z" transform="translate(-589.848 -122.986)" fill="#272d33"/>
        <circle id="Ellipse_50" data-name="Ellipse 50" cx="1.906" cy="1.906" r="1.906" transform="translate(91.542 91.454)" fill="#272d33"/>
        <path id="Path_1131" data-name="Path 1131" d="M665.327,210.932a1.906,1.906,0,1,1,1.9,1.906A1.9,1.9,0,0,1,665.327,210.932Z" transform="translate(-610.448 -102.398)" fill="#272d33"/>
        <circle id="Ellipse_51" data-name="Ellipse 51" cx="1.906" cy="1.906" r="1.906" transform="translate(18.223 91.432)" fill="#272d33"/>
        <path id="Path_1132" data-name="Path 1132" d="M635.991,177.766a1.906,1.906,0,1,1-1.906,1.9A1.9,1.9,0,0,1,635.991,177.766Z" transform="translate(-631.036 -122.998)" fill="#272d33"/>
        <path id="Path_1133" data-name="Path 1133" d="M646.5,156.229a1.906,1.906,0,1,1-2.694,0A1.907,1.907,0,0,1,646.5,156.229Z" transform="translate(-625 -137.559)" fill="#272d33"/>
      </g>
      <g id="Group_780" data-name="Group 780" transform="translate(682.681 119.338)">
        <path id="Path_1134" data-name="Path 1134" d="M665.183,149.006l.022-1.609a.634.634,0,0,1,.665-.594l.448.007a.632.632,0,0,1,.65.611l-.02,1.611Z" transform="translate(-648.727 -101.239)" fill="#b8aa85"/>
        <path id="Path_1135" data-name="Path 1135" d="M664.119,148.736l.018-1.453a.633.633,0,0,1,.667-.594l.446.007a.63.63,0,0,1,.65.611l-.023,1.7Z" transform="translate(-649.428 -101.314)" fill="#b8aa85"/>
        <path id="Path_1136" data-name="Path 1136" d="M668.018,149.058l.021-1.644a.633.633,0,0,0-.652-.612l-.445-.007a.636.636,0,0,0-.669.594l-.02,1.647Z" transform="translate(-648.021 -101.244)" fill="#b8aa85"/>
        <path id="Path_1137" data-name="Path 1137" d="M669.088,148.78l.02-1.453a.633.633,0,0,0-.652-.612l-.445,0a.632.632,0,0,0-.667.594l-.025,1.939Z" transform="translate(-647.319 -101.3)" fill="#b8aa85"/>
        <path id="Path_1138" data-name="Path 1138" d="M670,148.912l.023-1.727a.578.578,0,0,0-.594-.559l-.408,0a.576.576,0,0,0-.607.542l-.027,1.954Z" transform="translate(-646.618 -101.359)" fill="#b8aa85"/>
        <path id="Path_1139" data-name="Path 1139" d="M670.714,148.417l.02-1.549a.5.5,0,0,0-.508-.478l-.349-.005a.5.5,0,0,0-.523.466l-.026,2.08Z" transform="translate(-645.995 -101.514)" fill="#b8aa85"/>
        <path id="Path_1140" data-name="Path 1140" d="M671.552,147.844l.017-1.286a.5.5,0,0,0-.508-.478l-.348,0a.494.494,0,0,0-.523.465l-.027,2.12Z" transform="translate(-645.445 -101.717)" fill="#b8aa85"/>
        <path id="Path_1141" data-name="Path 1141" d="M664.549,147.647c-.005.382-.066.692-.138.69s-.123-.312-.118-.7.066-.692.138-.69S664.555,147.264,664.549,147.647Z" transform="translate(-649.314 -101.14)" fill="#ffebb8"/>
        <path id="Path_1142" data-name="Path 1142" d="M665.576,147.751c0,.347-.06.627-.124.627s-.113-.284-.108-.63.06-.627.124-.627S665.581,147.4,665.576,147.751Z" transform="translate(-648.621 -101.029)" fill="#ffebb8"/>
        <path id="Path_1143" data-name="Path 1143" d="M666.708,147.791c-.005.342-.091.615-.194.615s-.182-.279-.177-.62.09-.615.194-.614S666.713,147.451,666.708,147.791Z" transform="translate(-647.967 -100.995)" fill="#ffebb8"/>
        <path id="Path_1144" data-name="Path 1144" d="M667.685,147.688c-.005.383-.066.692-.134.692s-.123-.312-.118-.7.065-.693.134-.692S667.69,147.3,667.685,147.688Z" transform="translate(-647.244 -101.113)" fill="#ffebb8"/>
        <path id="Path_1145" data-name="Path 1145" d="M668.747,147.54c0,.338-.065.61-.134.61s-.123-.275-.118-.614.065-.609.134-.607S668.752,147.2,668.747,147.54Z" transform="translate(-646.545 -101.156)" fill="#ffebb8"/>
        <path id="Path_1146" data-name="Path 1146" d="M669.683,147.23c-.005.33-.056.6-.116.6s-.106-.269-.1-.6.058-.6.118-.6S669.688,146.9,669.683,147.23Z" transform="translate(-645.906 -101.352)" fill="#ffebb8"/>
        <path id="Path_1147" data-name="Path 1147" d="M670.466,146.986c0,.327-.058.591-.125.591s-.111-.267-.106-.594.058-.589.123-.589S670.471,146.659,670.466,146.986Z" transform="translate(-645.398 -101.508)" fill="#ffebb8"/>
        <path id="Path_1148" data-name="Path 1148" d="M667.139,145.027l-.03,2.279a.755.755,0,0,1-.795.708l-.534-.007a.753.753,0,0,1-.775-.73l.028-2.279Z" transform="translate(-648.844 -102.427)" fill="#b8aa85"/>
        <path id="Path_1149" data-name="Path 1149" d="M663.152,148.442l.017-1.327a.577.577,0,0,1,.607-.541l.408,0a.575.575,0,0,1,.592.557l-.021,1.767Z" transform="translate(-650.065 -101.39)" fill="#b8aa85"/>
        <path id="Path_1150" data-name="Path 1150" d="M663.446,147.42c0,.287-.043.519-.09.519s-.081-.234-.076-.521.043-.521.089-.519S663.449,147.133,663.446,147.42Z" transform="translate(-649.981 -101.175)" fill="#ffebb8"/>
        <path id="Path_1151" data-name="Path 1151" d="M662.353,148.068l.016-1.289a.493.493,0,0,1,.521-.463l.348,0a.494.494,0,0,1,.509.478l-.025,1.822Z" transform="translate(-650.592 -101.56)" fill="#b8aa85"/>
        <path id="Path_1152" data-name="Path 1152" d="M662.661,147.17c-.005.335-.055.607-.113.607s-.1-.274-.093-.611.053-.607.109-.605S662.664,146.835,662.661,147.17Z" transform="translate(-650.525 -101.398)" fill="#ffebb8"/>
        <path id="Path_1153" data-name="Path 1153" d="M661.526,147.749l.018-1.3a.5.5,0,0,1,.519-.466l.35,0a.5.5,0,0,1,.509.478l-.026,1.875Z" transform="translate(-651.137 -101.778)" fill="#b8aa85"/>
        <path id="Path_1154" data-name="Path 1154" d="M661.821,146.74c0,.267-.052.481-.11.481s-.1-.217-.1-.484.051-.481.11-.479S661.824,146.474,661.821,146.74Z" transform="translate(-651.078 -101.598)" fill="#ffebb8"/>
        <path id="Path_1155" data-name="Path 1155" d="M687.281,142.195l-3.741,1.223a14.142,14.142,0,0,1-.924,3.854c-2.177,5.5-10.463,4.906-10.463,4.906s-8.3.38-10.332-5.179a14.208,14.208,0,0,1-.821-3.877l-3.7-1.321a5.4,5.4,0,0,1,.577,2.311c-.045,1.116-.614,4.041-.075,5.564.674,2.386,9.143,8.731,9.143,8.731s.761.833,5.12.889,5.141-.755,5.141-.755,8.633-6.12,9.367-8.487c.581-1.51.088-4.446.073-5.564A5.392,5.392,0,0,1,687.281,142.195Z" transform="translate(-653.925 -104.536)" fill="#d6c59b"/>
        <path id="Path_1156" data-name="Path 1156" d="M664.065,145.083l-.022,1.8a.76.76,0,0,0,.781.735h.017a.756.756,0,0,0,.8-.713l.02-1.5Z" transform="translate(-649.478 -102.372)" fill="#b8aa85"/>
        <path id="Path_1157" data-name="Path 1157" d="M664.668,145.072l-.022,1.662a.687.687,0,0,1-.725.645h-.085a.689.689,0,0,1-.707-.665l.021-1.662Z" transform="translate(-650.08 -102.392)" fill="#b8aa85"/>
        <path id="Path_1158" data-name="Path 1158" d="M663.664,145.092l-.017,1.334a.588.588,0,0,1-.619.551h-.071a.585.585,0,0,1-.6-.567l.021-1.614Z" transform="translate(-650.591 -102.562)" fill="#b8aa85"/>
        <path id="Path_1159" data-name="Path 1159" d="M662.83,145.06l-.013.926a.522.522,0,0,1-.552.493H662.2a.526.526,0,0,1-.539-.508l.015-1.176Z" transform="translate(-651.047 -102.562)" fill="#b8aa85"/>
        <path id="Path_1160" data-name="Path 1160" d="M666.3,145.094l-.028,2.15a.756.756,0,0,0,.776.73l.532.007a.756.756,0,0,0,.8-.71l.028-2.15Z" transform="translate(-648.009 -102.365)" fill="#b8aa85"/>
        <path id="Path_1161" data-name="Path 1161" d="M669.168,145.142l-.025,1.8a.761.761,0,0,1-.8.715h-.015a.76.76,0,0,1-.781-.737l.018-1.5Z" transform="translate(-647.171 -102.333)" fill="#b8aa85"/>
        <path id="Path_1162" data-name="Path 1162" d="M668.534,145.045l-.025,1.792a.688.688,0,0,0,.708.664l.085,0a.686.686,0,0,0,.723-.645l.023-1.792Z" transform="translate(-646.535 -102.397)" fill="#b8aa85"/>
        <path id="Path_1163" data-name="Path 1163" d="M669.442,145.247l-.015,1.193a.588.588,0,0,0,.6.567l.071,0a.586.586,0,0,0,.617-.551l.018-1.475Z" transform="translate(-645.93 -102.438)" fill="#b8aa85"/>
        <path id="Path_1164" data-name="Path 1164" d="M670.222,144.983l-.011,1.05a.521.521,0,0,0,.539.508h.063a.522.522,0,0,0,.552-.491l.012-.912Z" transform="translate(-645.414 -102.438)" fill="#b8aa85"/>
        <path id="Path_1165" data-name="Path 1165" d="M692.406,134.014c-2.357-15.291-18.287-14.66-18.287-14.66s-15.908-1.048-18.667,14.176c-.861,5.642,1.516,9.315,1.486,11.551s-2.23,7.3-.634,9.733,6.533,2.759,7.686,3.957a8.955,8.955,0,0,1,1.737,3.159l.647.04a4.94,4.94,0,0,1,1.387.287l.569.209.423-.1a1.157,1.157,0,0,1,.453-.018l.665.335c.24,0,.838-.118,1.039,0l.527.324.5-.526a.683.683,0,0,1,.926-.04l.678.594.7-.574a.68.68,0,0,1,.924.061l.486.541.537-.31c.2-.118.8.02,1.038.023l.674-.319a1.151,1.151,0,0,1,.451.03l.421.114.576-.192a4.884,4.884,0,0,1,1.393-.25l.647-.023a8.929,8.929,0,0,1,1.818-3.112c1.186-1.166,6.127-1.359,7.787-3.753s-.406-7.512-.377-9.747S693.119,139.679,692.406,134.014Z" transform="translate(-655.264 -119.338)" fill="#d6c59b"/>
        <path id="Path_1166" data-name="Path 1166" d="M660.759,134.229c-3.565,1.408-2.656,5.465-2.215,6.4.654,1.875,8.889,4.37,10.906-2.182C669.979,136.53,667.776,131.784,660.759,134.229Z" transform="translate(-653.391 -109.976)" fill="#ccbc93"/>
        <path id="Path_1167" data-name="Path 1167" d="M660.862,134.142c-3.116,1.231-2.319,4.778-1.936,5.6.574,1.641,7.772,3.821,9.534-1.906C668.921,136.154,667,132,660.862,134.142Z" transform="translate(-653.102 -109.976)" fill="#736a53"/>
        <path id="Path_1168" data-name="Path 1168" d="M655.627,143.617l.168-.967a14.746,14.746,0,0,1,1.875-4.031,9.051,9.051,0,0,0,1.843-4.446,10.33,10.33,0,0,0-.66-4.048,7.528,7.528,0,0,1,.971,4.06,9.314,9.314,0,0,1-1.895,4.6A21.648,21.648,0,0,0,655.627,143.617Z" transform="translate(-655.024 -112.23)" fill="#968b6c"/>
        <path id="Path_1169" data-name="Path 1169" d="M678.711,143.932l-.143-.97a14.672,14.672,0,0,0-1.768-4.081,9.064,9.064,0,0,1-1.725-4.493,10.328,10.328,0,0,1,.768-4.03,7.518,7.518,0,0,0-1.077,4.033,9.291,9.291,0,0,0,1.772,4.65A21.722,21.722,0,0,1,678.711,143.932Z" transform="translate(-642.412 -112.076)" fill="#968b6c"/>
        <path id="Path_1170" data-name="Path 1170" d="M676.568,134.442c3.525,1.5,2.508,5.534,2.044,6.462-.7,1.858-9,4.136-10.848-2.469C667.286,136.5,669.612,131.813,676.568,134.442Z" transform="translate(-647.066 -109.899)" fill="#ccbc93"/>
        <path id="Path_1171" data-name="Path 1171" d="M676,134.471c3.082,1.312,2.195,4.836,1.787,5.647-.614,1.622-7.867,3.613-9.478-2.158C667.9,136.271,669.928,132.174,676,134.471Z" transform="translate(-646.698 -109.815)" fill="#736a53"/>
        <path id="Path_1172" data-name="Path 1172" d="M675.222,134.589c2.648,1.128,1.886,4.156,1.536,4.853-.529,1.4-6.764,3.1-8.149-1.853C668.25,136.136,670,132.613,675.222,134.589Z" transform="translate(-646.499 -109.674)" fill="#5e5744"/>
        <path id="Path_1173" data-name="Path 1173" d="M674.668,134.649c2.323.989,1.652,3.641,1.347,4.252-.465,1.224-5.927,2.722-7.14-1.624C668.561,136,670.091,132.917,674.668,134.649Z" transform="translate(-646.32 -109.588)" fill="#454032"/>
        <path id="Path_1174" data-name="Path 1174" d="M673.938,134.916c1.848.786,1.314,2.9,1.072,3.384-.37.972-4.715,2.165-5.68-1.294C669.079,135.994,670.3,133.539,673.938,134.916Z" transform="translate(-646.015 -109.342)" fill="#363227"/>
        <path id="Path_1175" data-name="Path 1175" d="M673.346,135.133a1.982,1.982,0,0,1,.848,2.678c-.292.77-3.731,1.714-4.5-1.022C669.5,135.987,670.464,134.043,673.346,135.133Z" transform="translate(-645.768 -109.143)" fill="#1a1812"/>
        <path id="Path_1176" data-name="Path 1176" d="M660.96,134.4c-2.679,1.058-2,4.106-1.664,4.811.493,1.408,6.677,3.281,8.192-1.637C667.886,136.126,666.23,132.561,660.96,134.4Z" transform="translate(-652.824 -109.753)" fill="#5e5744"/>
        <path id="Path_1177" data-name="Path 1177" d="M661.083,134.466c-2.346.926-1.747,3.6-1.458,4.215.431,1.234,5.854,2.877,7.18-1.437C667.154,135.981,665.7,132.855,661.083,134.466Z" transform="translate(-652.579 -109.666)" fill="#454032"/>
        <path id="Path_1178" data-name="Path 1178" d="M661.19,134.744c-1.866.738-1.39,2.863-1.16,3.354.343.982,4.657,2.289,5.712-1.141C666.019,135.95,664.866,133.464,661.19,134.744Z" transform="translate(-652.274 -109.421)" fill="#363227"/>
        <path id="Path_1179" data-name="Path 1179" d="M661.275,134.97a1.982,1.982,0,0,0-.916,2.656c.27.776,3.683,1.81,4.519-.9C665.1,135.926,664.185,133.958,661.275,134.97Z" transform="translate(-652.026 -109.223)" fill="#1a1812"/>
        <path id="Path_1180" data-name="Path 1180" d="M667.731,138.785a.431.431,0,0,0-.753-.008c-.715,1.244-2.167,3.94-2.089,5.135a3.969,3.969,0,0,0,.173.946,1.836,1.836,0,0,0,1.754,1.2h.015a.437.437,0,0,1,.858.012h.015a1.836,1.836,0,0,0,1.785-1.155,3.98,3.98,0,0,0,.2-.941C669.793,142.781,668.411,140.049,667.731,138.785Z" transform="translate(-648.923 -106.671)" fill="#736a53"/>
        <path id="Path_1181" data-name="Path 1181" d="M667.467,139.31a.35.35,0,0,0-.611-.008c-.579,1.01-1.757,3.2-1.694,4.166a3.156,3.156,0,0,0,.139.766,1.487,1.487,0,0,0,1.423.974h.012a.354.354,0,0,1,.7.008l.012,0a1.49,1.49,0,0,0,1.448-.937,3.181,3.181,0,0,0,.158-.761C669.14,142.551,668.02,140.335,667.467,139.31Z" transform="translate(-648.742 -106.297)" fill="#5e5744"/>
        <path id="Path_1182" data-name="Path 1182" d="M667.258,139.616a.283.283,0,0,0-.495-.007c-.474.823-1.433,2.6-1.382,3.393a2.659,2.659,0,0,0,.115.622,1.214,1.214,0,0,0,1.158.795h.01a.275.275,0,0,0,.287-.231.271.271,0,0,0,.28.237h.008a1.209,1.209,0,0,0,1.18-.761,2.584,2.584,0,0,0,.129-.62C668.622,142.256,667.709,140.451,667.258,139.616Z" transform="translate(-648.597 -106.073)" fill="#454032"/>
        <path id="Path_1183" data-name="Path 1183" d="M667,140.088a.2.2,0,0,0-.357,0,6.882,6.882,0,0,0-.994,2.44,1.791,1.791,0,0,0,.083.448.87.87,0,0,0,.833.571h.008a.2.2,0,0,0,.206-.166.193.193,0,0,0,.2.171h.007a.871.871,0,0,0,.848-.547,1.839,1.839,0,0,0,.093-.446A6.824,6.824,0,0,0,667,140.088Z" transform="translate(-648.42 -105.735)" fill="#363227"/>
        <path id="Path_1184" data-name="Path 1184" d="M666.815,140.45a.147.147,0,0,0-.257,0,4.925,4.925,0,0,0-.713,1.754,1.279,1.279,0,0,0,.06.322.625.625,0,0,0,.6.411h0a.143.143,0,0,0,.148-.119.141.141,0,0,0,.146.123h0a.63.63,0,0,0,.612-.395,1.385,1.385,0,0,0,.066-.32A4.933,4.933,0,0,0,666.815,140.45Z" transform="translate(-648.292 -105.475)" fill="#1a1812"/>
        <path id="Path_1185" data-name="Path 1185" d="M673.168,143.26l3.741-1.223-.264.568-3.61,1.643Z" transform="translate(-643.553 -104.379)" fill="#bdae89"/>
        <path id="Path_1186" data-name="Path 1186" d="M661,143.12l-3.705-1.32.248.575,3.564,1.737Z" transform="translate(-653.925 -104.536)" fill="#bdae89"/>
        <path id="Path_1187" data-name="Path 1187" d="M666.607,145.06c-.011.813-.114,1.473-.232,1.471s-.2-.664-.193-1.478.115-1.472.232-1.47S666.617,144.246,666.607,145.06Z" transform="translate(-648.069 -103.36)" fill="#ccbc93"/>
        <path id="Path_1188" data-name="Path 1188" d="M667.72,145.163a2.333,2.333,0,0,1-.139,1.048,4.438,4.438,0,0,1,.026-2.1A2.331,2.331,0,0,1,667.72,145.163Z" transform="translate(-647.221 -103.013)" fill="#ccbc93"/>
        <path id="Path_1189" data-name="Path 1189" d="M668.591,145.238a1.658,1.658,0,0,1-.093.737,3.38,3.38,0,0,1,.02-1.473A1.67,1.67,0,0,1,668.591,145.238Z" transform="translate(-646.59 -102.756)" fill="#ccbc93"/>
        <path id="Path_1190" data-name="Path 1190" d="M669.515,145.036c0,.287-.048.519-.1.519s-.093-.234-.088-.523.048-.521.1-.519S669.52,144.747,669.515,145.036Z" transform="translate(-645.996 -102.748)" fill="#ccbc93"/>
        <path id="Path_1191" data-name="Path 1191" d="M670.256,144.974c0,.249-.038.451-.075.45s-.068-.2-.065-.451.036-.45.076-.45S670.26,144.725,670.256,144.974Z" transform="translate(-645.476 -102.741)" fill="#ccbc93"/>
        <path id="Path_1192" data-name="Path 1192" d="M664.891,145.125a.533.533,0,1,0,.139-1.048A2.3,2.3,0,0,0,664.891,145.125Z" transform="translate(-648.92 -103.035)" fill="#ccbc93"/>
        <path id="Path_1193" data-name="Path 1193" d="M663.98,145.179a.373.373,0,1,0,.093-.737A1.72,1.72,0,0,0,663.98,145.179Z" transform="translate(-649.52 -102.794)" fill="#ccbc93"/>
        <path id="Path_1194" data-name="Path 1194" d="M663.069,144.951c-.005.287.035.521.088.523s.1-.232.1-.521-.035-.521-.088-.523S663.073,144.662,663.069,144.951Z" transform="translate(-650.12 -102.802)" fill="#ccbc93"/>
        <path id="Path_1195" data-name="Path 1195" d="M662.309,144.87c0,.249.026.451.065.453s.071-.2.075-.451-.023-.451-.063-.451S662.312,144.621,662.309,144.87Z" transform="translate(-650.621 -102.809)" fill="#ccbc93"/>
        <path id="Path_1196" data-name="Path 1196" d="M662.02,145.567c-.005.255-.08.46-.168.46s-.161-.209-.158-.463.08-.46.169-.458S662.023,145.313,662.02,145.567Z" transform="translate(-651.025 -102.357)" fill="#ffebb8"/>
        <path id="Path_1197" data-name="Path 1197" d="M662.73,145.782c0,.241-.063.435-.134.433s-.128-.2-.124-.435.065-.435.134-.433S662.733,145.543,662.73,145.782Z" transform="translate(-650.514 -102.198)" fill="#ffebb8"/>
        <path id="Path_1198" data-name="Path 1198" d="M663.423,146.056c0,.289-.048.519-.1.519s-.088-.234-.083-.521.046-.521.095-.519S663.427,145.769,663.423,146.056Z" transform="translate(-650.005 -102.074)" fill="#ffebb8"/>
        <path id="Path_1199" data-name="Path 1199" d="M664.421,146.183c0,.294-.07.531-.146.531s-.134-.241-.131-.534.07-.529.146-.529S664.424,145.891,664.421,146.183Z" transform="translate(-649.412 -101.998)" fill="#ffebb8"/>
        <path id="Path_1200" data-name="Path 1200" d="M665.357,146.311c0,.315-.056.571-.116.569s-.108-.257-.1-.572.056-.571.118-.569S665.36,146,665.357,146.311Z" transform="translate(-648.757 -101.94)" fill="#ffebb8"/>
        <path id="Path_1201" data-name="Path 1201" d="M666.685,146.449c0,.383-.07.692-.144.692s-.129-.312-.124-.7.068-.692.143-.69S666.69,146.068,666.685,146.449Z" transform="translate(-647.915 -101.929)" fill="#ffebb8"/>
        <path id="Path_1202" data-name="Path 1202" d="M667.851,146.285c0,.26-.055.473-.114.471s-.108-.212-.1-.474.056-.473.116-.471S667.854,146.025,667.851,146.285Z" transform="translate(-647.113 -101.892)" fill="#ffebb8"/>
        <path id="Path_1203" data-name="Path 1203" d="M668.827,146.152c0,.3-.06.546-.123.546s-.113-.247-.109-.547.058-.546.124-.546S668.831,145.852,668.827,146.152Z" transform="translate(-646.479 -102.028)" fill="#ffebb8"/>
        <path id="Path_1204" data-name="Path 1204" d="M669.758,145.893c0,.192-.051.347-.109.345s-.1-.156-.1-.347.051-.347.109-.347S669.761,145.7,669.758,145.893Z" transform="translate(-645.851 -102.068)" fill="#ffebb8"/>
        <path id="Path_1205" data-name="Path 1205" d="M670.417,145.656c0,.2-.042.362-.088.362s-.08-.164-.078-.363.042-.362.088-.36S670.42,145.457,670.417,145.656Z" transform="translate(-645.387 -102.233)" fill="#ffebb8"/>
      </g>
    </g>
  </svg>
