<svg xmlns="http://www.w3.org/2000/svg" width="66.942" height="114.058" viewBox="0 0 66.942 114.058">
    <g id="Group_739" data-name="Group 739" transform="translate(-372.244 -42.081)">
        <rect id="Rectangle_187" data-name="Rectangle 187" width="66.942" height="2.587" transform="translate(372.244 60.092)" fill="#67412f" />
        <rect id="Rectangle_188" data-name="Rectangle 188" width="2.587" height="113.834" transform="translate(404.421 42.305)" fill="#67412f" />
        <path id="Path_892" data-name="Path 892" d="M378.28,62.678v57.349L405.715,104.5l27.112,15.524V62.678Z" fill="#a62626" />
        <path id="Path_893" data-name="Path 893" d="M432.827,62.678H405.715V104.5l27.112,15.524Z" fill="#26a69a" />
        <path id="Path_894" data-name="Path 894" d="M404.421,42.305s4.474-1.051,10.725,1.4c3.691,1.447,9.7,0,9.7,0S419.353,53.84,404.421,53.84Z" fill="#a62626" />
        <path id="Path_895" data-name="Path 895" d="M424.848,43.707s-5.011,4.735-20.427,4.254V53.84C419.353,53.84,424.848,43.707,424.848,43.707Z" fill="#26a69a" />
        <g id="Group_735" data-name="Group 735">
            <g id="Group_733" data-name="Group 733">
                <path id="Path_896" data-name="Path 896" d="M396.163,67.639l1.022,2.645,2.833.155-2.2,1.79.729,2.74-2.383-1.539-2.38,1.539.728-2.74-2.2-1.79,2.831-.155Z" fill="#26a69a" />
                <path id="Path_897" data-name="Path 897" d="M396.163,77.771l1.022,2.645,2.833.155-2.2,1.79.729,2.74-2.383-1.539-2.38,1.539.728-2.74-2.2-1.79,2.831-.155Z" fill="#26a69a" />
                <path id="Path_898" data-name="Path 898" d="M396.163,87.777l1.022,2.646,2.833.155-2.2,1.79.729,2.741-2.383-1.54-2.38,1.54.728-2.741-2.2-1.79,2.831-.155Z" fill="#26a69a" />
                <path id="Path_899" data-name="Path 899" d="M396.163,96.832l1.022,2.645,2.833.154-2.2,1.79.729,2.74-2.383-1.539-2.38,1.539.728-2.74-2.2-1.79,2.831-.154Z" fill="#26a69a" />
            </g>
            <g id="Group_734" data-name="Group 734">
                <path id="Path_900" data-name="Path 900" d="M387.325,67.639l1.021,2.645,2.832.155-2.2,1.79.729,2.74-2.382-1.539-2.382,1.539.728-2.74-2.2-1.79,2.832-.155Z" fill="#26a69a" />
                <path id="Path_901" data-name="Path 901" d="M387.325,77.771l1.021,2.645,2.832.155-2.2,1.79.729,2.74-2.382-1.539L384.943,85.1l.728-2.74-2.2-1.79,2.832-.155Z" fill="#26a69a" />
                <path id="Path_902" data-name="Path 902" d="M387.325,87.777l1.021,2.646,2.832.155-2.2,1.79.729,2.741-2.382-1.54-2.382,1.54.728-2.741-2.2-1.79,2.832-.155Z" fill="#26a69a" />
                <path id="Path_903" data-name="Path 903" d="M387.325,96.832l1.021,2.645,2.832.154-2.2,1.79.729,2.74-2.382-1.539-2.382,1.539.728-2.74-2.2-1.79,2.832-.154Z" fill="#26a69a" />
            </g>
        </g>
        <g id="Group_738" data-name="Group 738">
            <g id="Group_736" data-name="Group 736">
                <path id="Path_904" data-name="Path 904" d="M423.691,67.639l1.022,2.645,2.832.155-2.2,1.79.73,2.74-2.383-1.539-2.381,1.539.728-2.74-2.2-1.79,2.831-.155Z" fill="#a62626" />
                <path id="Path_905" data-name="Path 905" d="M423.691,77.771l1.022,2.645,2.832.155-2.2,1.79.73,2.74-2.383-1.539L421.31,85.1l.728-2.74-2.2-1.79,2.831-.155Z" fill="#a62626" />
                <path id="Path_906" data-name="Path 906" d="M423.691,87.777l1.022,2.646,2.832.155-2.2,1.79.73,2.741-2.383-1.54-2.381,1.54.728-2.741-2.2-1.79,2.831-.155Z" fill="#a62626" />
                <path id="Path_907" data-name="Path 907" d="M423.691,96.832l1.022,2.645,2.832.154-2.2,1.79.73,2.74-2.383-1.539-2.381,1.539.728-2.74-2.2-1.79,2.831-.154Z" fill="#a62626" />
            </g>
            <g id="Group_737" data-name="Group 737">
                <path id="Path_908" data-name="Path 908" d="M414.852,67.639l1.022,2.645,2.832.155-2.2,1.79.73,2.74-2.383-1.539-2.381,1.539.727-2.74-2.2-1.79,2.831-.155Z" fill="#a62626" />
                <path id="Path_909" data-name="Path 909" d="M414.852,77.771l1.022,2.645,2.832.155-2.2,1.79.73,2.74-2.383-1.539L412.471,85.1l.727-2.74-2.2-1.79,2.831-.155Z" fill="#a62626" />
                <path id="Path_910" data-name="Path 910" d="M414.852,87.777l1.022,2.646,2.832.155-2.2,1.79.73,2.741-2.383-1.54-2.381,1.54.727-2.741-2.2-1.79,2.831-.155Z" fill="#a62626" />
                <path id="Path_911" data-name="Path 911" d="M414.852,96.832l1.022,2.645,2.832.154-2.2,1.79.73,2.74-2.383-1.539-2.381,1.539.727-2.74-2.2-1.79,2.831-.154Z" fill="#a62626" />
            </g>
        </g>
    </g>
</svg>
